<svg xmlns="http://www.w3.org/2000/svg" viewBox="0 0 995.55 220.37"><defs><style>.cls-1{fill:#bf4c20;stroke:#bf4c20;}.cls-1,.cls-2{stroke-miterlimit:10;stroke-width:4.55px;}.cls-2{fill:#36455a;stroke:#36455a;}</style></defs><g id="Capa_2" data-name="Capa 2"><g id="Capa_1-2" data-name="Capa 1"><path class="cls-1" d="M58,104.92V79.34q0-7.19-3.17-10.25T43,66H21.7v38.9H2.27V5.57h48.5a31.88,31.88,0,0,1,12,2.17,27.87,27.87,0,0,1,9.28,6,26.1,26.1,0,0,1,6,9.13A31.06,31.06,0,0,1,80.13,34.3a27.54,27.54,0,0,1-3.67,14.29,19.84,19.84,0,0,1-10.57,8.75q6.33,2.1,9,6.43t2.66,13v28.13ZM21.7,22.77V49.26H46.75q8.05,0,11.36-3.74a13.69,13.69,0,0,0,3.31-9.43,14.12,14.12,0,0,0-3.23-9.57Q55,22.77,47.46,22.77Z"/><path class="cls-1" d="M141.73,108.37q-22.17,0-34-13.47T95.82,56.14a78.33,78.33,0,0,1,3-22.59,46.94,46.94,0,0,1,8.92-17A38.94,38.94,0,0,1,122.15,5.94a49.13,49.13,0,0,1,19.58-3.67,49.21,49.21,0,0,1,19.5,3.67,37.1,37.1,0,0,1,14.32,10.7,49,49,0,0,1,8.78,17.13,79.77,79.77,0,0,1,3,22.82q0,25.74-11.73,38.76T141.73,108.37Zm0-17.81a25.37,25.37,0,0,0,10.07-2,22.26,22.26,0,0,0,8.28-6.14,29.68,29.68,0,0,0,5.54-10.55,51.36,51.36,0,0,0,2-15.26q0-17.65-6.62-26.78t-19.28-9.13q-12.67,0-19.43,9.13t-6.76,26.78q0,17.66,6.83,25.81T141.73,90.56Z"/><path class="cls-1" d="M260.89,104.92l-6-20.5H219.59l-6.77,20.5H191.67L225.78,5.57H249l33.67,99.35ZM237.15,27.86H237L224.77,67.37h24.32Z"/><path class="cls-1" d="M298.6,104.92V5.57h37a46.65,46.65,0,0,1,17.85,3.36,39.35,39.35,0,0,1,14,9.65,45,45,0,0,1,9.14,15.27,58.46,58.46,0,0,1,3.31,20.35,68.83,68.83,0,0,1-3,20.72,47.3,47.3,0,0,1-8.42,16,37.7,37.7,0,0,1-29.93,14Zm36-16.91q13.1,0,19-8.45t5.9-25.36A62.2,62.2,0,0,0,358,39.83a23.32,23.32,0,0,0-4.67-9.8,18.39,18.39,0,0,0-8.28-5.53,38,38,0,0,0-12.23-1.73H318V88Z"/><path class="cls-2" d="M499.36,104.92V79.34q0-7.19-3.17-10.25T484.39,66h-21.3v38.9H443.66V5.57h48.5a31.88,31.88,0,0,1,12,2.17,27.87,27.87,0,0,1,9.28,6,26.1,26.1,0,0,1,6,9.13,31.27,31.27,0,0,1,2.08,11.45,27.54,27.54,0,0,1-3.67,14.29,19.82,19.82,0,0,1-10.58,8.75c4.23,1.4,7.22,3.54,9,6.43s2.66,7.24,2.66,13v28.13ZM463.09,22.77V49.26h25c5.38,0,9.16-1.25,11.37-3.74a13.69,13.69,0,0,0,3.31-9.43,14.12,14.12,0,0,0-3.23-9.57q-3.24-3.75-10.73-3.75Z"/><path class="cls-2" d="M594.92,5.57h20.43V71.85q0,18.12-10.21,27.31t-29.07,9.21q-17.43,0-27.57-8.68T538.36,73.05V5.57h20.29V71.11q0,9.27,4.46,14.66t12.67,5.39q19.14,0,19.14-19.31Z"/><path class="cls-2" d="M693.64,104.92,652.77,38.19v66.73H634.21V5.57h21.15l38,63.89V5.57h18.71v99.35Z"/><path class="cls-2" d="M790.21,104.92,749.34,38.19v66.73H730.77V5.57h21.16l38,63.89V5.57h18.71v99.35Z"/><path class="cls-2" d="M827.34,104.92V5.57h70.23V22.92h-50.8V44.17h46.77V61.68H846.77V87.27h53.1v17.65Z"/><path class="cls-2" d="M971.11,104.92V79.34q0-7.19-3.16-10.25T956.14,66h-21.3v38.9H915.41V5.57h48.51a31.87,31.87,0,0,1,12,2.17,27.87,27.87,0,0,1,9.28,6,25.83,25.83,0,0,1,6,9.13,31.06,31.06,0,0,1,2.08,11.45,27.54,27.54,0,0,1-3.67,14.29A19.84,19.84,0,0,1,979,57.34q6.33,2.1,9,6.43t2.66,13v28.13ZM934.84,22.77V49.26h25q8.05,0,11.36-3.74a13.7,13.7,0,0,0,3.32-9.43,14.08,14.08,0,0,0-3.24-9.57q-3.24-3.75-10.72-3.75Z"/><path d="M236.88,190.53c0,14.05-9,28.11-25.23,29.61a59.44,59.44,0,0,1-6.29.23H192.5l8.62-51.86H214a46.85,46.85,0,0,1,5.73.22C229,169.56,236.88,176.32,236.88,190.53Zm-4.81.15c0-11.5-5.72-17.14-13.07-18a36.3,36.3,0,0,0-5.3-.22h-8.83l-7.35,44h8.83a44.21,44.21,0,0,0,5.73-.3C225.57,214.43,232.07,202.71,232.07,190.68Z"/><path d="M293.12,192.48h24.66l-.64,3.91H292.41l-3.32,20.15h27.28l-.64,3.83H284.07l8.62-51.86h30.95l-.7,3.83h-26.5Z"/><path d="M398.54,220.37H366.88l8.62-51.86h4.38l-8,48h27.27Z"/><path d="M448.56,220.37l8.62-51.86h4.38l-8.62,51.86Z"/><path d="M519.93,220.37l-9-51.86h4.74l7.84,48.25,24.24-48.25h5l-26.64,51.86Z"/><path d="M602.31,192.48H627l-.63,3.91H601.6l-3.32,20.15h27.28l-.64,3.83H593.27l8.62-51.86h31l-.71,3.83h-26.5Z"/><path d="M703.28,194.89c4,.83,5.3,4.21,5.37,14.73.07,5.79.5,8.79,1.27,10.75h-4.73c-.43-2.26-.78-4.89-.92-14.51-.07-4.88-1.34-8.57-6-8.87-1.34-.07-2.75-.07-3.88-.07h-10l-3.88,23.45h-4.38l8.62-51.86h14.41a46.16,46.16,0,0,1,6.57.3c6.22.83,10,4.51,10,11A14.89,14.89,0,0,1,703.28,194.89Zm7.63-14.28c0-4.74-2.54-7.22-6.92-7.89a38.24,38.24,0,0,0-5.51-.3H688.37L685,193h10.17c2.05,0,3.18,0,5-.15C706.32,192.33,710.91,187.82,710.91,180.61Z"/><path d="M777.12,220.37h-4.39l3.4-20.52-12-31.34h4.6L779,195.64l18.87-27.13h5.23l-22.61,31.64Z"/></g></g></svg>