<svg xmlns="http://www.w3.org/2000/svg" xmlns:xlink="http://www.w3.org/1999/xlink" viewBox="0 0 958 524.76"><defs><style>.cls-1{fill:#f15115;}.cls-2{fill:#36455a;}.cls-3{fill:#bf4c20;}.cls-4{fill:url(#Degradado_sin_nombre_184);}.cls-5{fill:none;stroke:#36455a;stroke-miterlimit:10;stroke-width:7.54px;}</style><radialGradient id="Degradado_sin_nombre_184" cx="185.3" cy="398.96" r="141.29" gradientUnits="userSpaceOnUse"><stop offset="0" stop-color="#3b5473"/><stop offset="1" stop-color="#3b5473"/><stop offset="1" stop-color="#191e3a"/></radialGradient></defs><g id="Capa_2" data-name="Capa 2"><g id="Capa_1-2" data-name="Capa 1"><path class="cls-1" d="M953.86,37.4c-11.43,2-30.07,5.67-43.53,10.64A151.51,151.51,0,0,0,878.1,64.22C875.6,65.89,853,81.13,839.51,102c-18.13,28-14.57,57.75-14.46,76.78.42,74.15-40.91,139.62-50.38,151.88-29.07,37.62-87.19,79.74-161.92,87.08-51.47,5.05-114.56-15.26-140.7-32.71A90.55,90.55,0,0,0,446.6,372.7c-19.77-5.93-37-3.43-48.45-1.65-22.68,3.55-38.62,11.44-55.65,20s-28.75,16.65-41.83,25.73c-24.7,17.13-29.89,24-59.74,45-14.8,10.39-22.35,15.65-29.74,18.83-23.36,10.09-47.27,9.35-62.41,7.31,46.71-42,124.22-103.15,169.83-135.43,17.34-12.27,57.75-31.25,138.57-69.23,83.14-39.06,100.72-43.09,142.37-66.17a697.81,697.81,0,0,0,120-84.33,70.11,70.11,0,0,0,19.67-27.88c0-.09.05-.17.08-.25a100.78,100.78,0,0,0,5.56-23.18c.48-4,.7-7.83.84-11.45h0c0-.7.06-1.4.08-2.09.12-3.27.19-6.4.36-9.46A69.1,69.1,0,0,1,747.55,47a2.82,2.82,0,0,1,.07-.31,57.44,57.44,0,0,1,20.29-31.26c.55-.44,1.13-.88,1.72-1.31C791-1.71,815.81-.7,823.1.77c26.75,5.4,39.78,22.19,88.74,18.6,17.18-1.26,33.77,3.4,43.69,9.06A4.82,4.82,0,0,1,953.86,37.4Z"/><path class="cls-2" d="M764.74,76.67a5.36,5.36,0,0,1-2.42,4.27,6.83,6.83,0,0,1-4.85,1.28,102.34,102.34,0,0,0-12.65-.77c.48-4,.7-7.83.84-11.45h0a105.54,105.54,0,0,1,12.62.81C762.14,71.29,764.67,73.6,764.74,76.67Z"/><path class="cls-2" d="M765.9,53.68a5.35,5.35,0,0,1-2.42,4.25,6.88,6.88,0,0,1-4.84,1.3,100.94,100.94,0,0,0-12.54-.79A69.1,69.1,0,0,1,747.55,47a104.49,104.49,0,0,1,11.89.8C763.3,48.28,765.84,50.59,765.9,53.68Z"/><path class="cls-2" d="M765.12,99.73A5.35,5.35,0,0,1,762.7,104a6.84,6.84,0,0,1-4.85,1.3,105.43,105.43,0,0,0-14.36-.77c-1.32,0-2.7.06-4.23.12a101.61,101.61,0,0,0,3.5-11.56,109.41,109.41,0,0,1,15.89.78C762.51,94.35,765.06,96.65,765.12,99.73Z"/><path class="cls-3" d="M165,473.81l.11,0c-8.57,7.7-32.4,28.86-38.51,35a42,42,0,0,1-21.06,11.4c-10.07,2.14-24.46,4.6-37.27,4.55-12.34,0-18.54-14.44-9.88-22.94a768.36,768.36,0,0,1,102-83.4l.17-.09c55.71-38.13,128-76.62,210.11-94.15C302.7,354.26,165,473.81,165,473.81Z"/><path class="cls-4" d="M370.6,324.18c-82.16,17.53-154.4,56-210.11,94.15l-.17.09-82,43.81a90.87,90.87,0,0,1-65.23,9l-2.65-.65A13.32,13.32,0,0,1,6.92,446C155.71,362.29,367.3,324.76,370.6,324.18Z"/><ellipse class="cls-5" cx="679.17" cy="385.06" rx="112.3" ry="106.46"/><ellipse class="cls-5" cx="679.17" cy="385.06" rx="103.11" ry="100.31"/><ellipse class="cls-5" cx="679.17" cy="385.06" rx="97.81" ry="92.45"/></g></g></svg>