<svg xmlns="http://www.w3.org/2000/svg" xmlns:xlink="http://www.w3.org/1999/xlink" viewBox="0 0 1035.83 423.44"><defs><style>.cls-1{fill:#f15115;}.cls-2,.cls-7{fill:#36455a;}.cls-3,.cls-6{fill:#bf4c20;}.cls-4{fill:url(#Degradado_sin_nombre_184);}.cls-5{fill:none;stroke-width:6.09px;}.cls-5,.cls-7{stroke:#36455a;}.cls-5,.cls-6,.cls-7{stroke-miterlimit:10;}.cls-6{stroke:#bf4c20;}.cls-6,.cls-7{stroke-width:3.65px;}</style><radialGradient id="Degradado_sin_nombre_184" cx="412.31" cy="321.93" r="114.01" gradientUnits="userSpaceOnUse"><stop offset="0" stop-color="#3b5473"/><stop offset="1" stop-color="#3b5473"/><stop offset="1" stop-color="#191e3a"/></radialGradient></defs><g id="Capa_2" data-name="Capa 2"><g id="Capa_1-2" data-name="Capa 1"><path class="cls-1" d="M1032.49,30.18c-9.23,1.6-24.27,4.58-35.13,8.58a122.88,122.88,0,0,0-26,13.06c-2,1.35-20.22,13.65-31.13,30.5-14.64,22.6-11.76,46.6-11.68,62,.35,59.84-33,112.66-40.65,122.55-23.45,30.36-70.35,64.35-130.65,70.27-41.53,4.08-92.45-12.31-113.54-26.39a73.11,73.11,0,0,0-20.54-10c-15.95-4.79-29.86-2.77-39.09-1.33-18.3,2.86-31.17,9.23-44.91,16.17S516,329,505.41,336.34c-19.93,13.83-24.12,19.39-48.2,36.28-11.95,8.39-18,12.63-24,15.2-18.86,8.14-38.15,7.54-50.36,5.9,37.69-33.88,100.23-83.24,137-109.29,14-9.9,46.6-25.22,111.82-55.86,67.09-31.52,81.27-34.77,114.89-53.4a562.74,562.74,0,0,0,96.79-68,56.45,56.45,0,0,0,15.87-22.49c0-.07,0-.14.07-.2a82.19,82.19,0,0,0,4.49-18.71c.39-3.26.56-6.32.68-9.24h0l.06-1.69c.09-2.64.15-5.17.29-7.63A55.73,55.73,0,0,1,866,37.92c0-.08,0-.16,0-.25a46.38,46.38,0,0,1,16.38-25.22c.44-.35.91-.71,1.38-1C901.09-1.38,921.09-.57,927,.62c21.59,4.36,32.1,17.91,71.61,15,13.87-1,27.24,2.75,35.26,7.31A3.89,3.89,0,0,1,1032.49,30.18Z"/><path class="cls-2" d="M879.88,61.87a4.29,4.29,0,0,1-2,3.44,5.53,5.53,0,0,1-3.92,1,81.2,81.2,0,0,0-10.2-.63c.39-3.26.56-6.32.68-9.24h0a84.72,84.72,0,0,1,10.18.65C877.78,57.53,879.83,59.39,879.88,61.87Z"/><path class="cls-2" d="M880.81,43.31a4.29,4.29,0,0,1-1.95,3.43,5.55,5.55,0,0,1-3.9,1,82.31,82.31,0,0,0-10.12-.63A55.73,55.73,0,0,1,866,37.92a88.31,88.31,0,0,1,9.59.65C878.72,39,880.77,40.83,880.81,43.31Z"/><path class="cls-2" d="M880.19,80.48a4.34,4.34,0,0,1-2,3.43,5.54,5.54,0,0,1-3.92,1,84.76,84.76,0,0,0-11.59-.62c-1.06,0-2.18,0-3.41.1a81.8,81.8,0,0,0,2.82-9.33,87.8,87.8,0,0,1,12.82.63C878.08,76.13,880.14,78,880.19,80.48Z"/><path class="cls-3" d="M395.9,382.33H396c-6.91,6.22-26.14,23.3-31.08,28.24a33.92,33.92,0,0,1-17,9.19c-8.12,1.73-19.74,3.71-30.07,3.67-10,0-15-11.65-8-18.51a620.36,620.36,0,0,1,82.27-67.29l.15-.08c44.95-30.76,103.24-61.82,169.54-76C507.05,285.86,395.9,382.33,395.9,382.33Z"/><path class="cls-4" d="M561.84,261.59c-66.3,14.15-124.59,45.21-169.54,76l-.15.08L326,373a73.37,73.37,0,0,1-52.64,7.29l-2.14-.53a10.75,10.75,0,0,1-2.8-19.9C388.44,292.34,559.18,262.06,561.84,261.59Z"/><ellipse class="cls-5" cx="810.83" cy="310.71" rx="90.62" ry="85.9"/><ellipse class="cls-5" cx="810.83" cy="310.71" rx="83.2" ry="80.94"/><ellipse class="cls-5" cx="810.83" cy="310.71" rx="78.93" ry="74.6"/><path class="cls-6" d="M46.53,100.44V79.91q0-5.77-2.54-8.23c-1.7-1.64-4.85-2.46-9.47-2.46H17.42v31.22H1.83V20.7H40.75a25.67,25.67,0,0,1,9.65,1.74,22.43,22.43,0,0,1,7.45,4.8,20.68,20.68,0,0,1,4.79,7.33,24.81,24.81,0,0,1,1.68,9.19,22.09,22.09,0,0,1-2.95,11.47,15.93,15.93,0,0,1-8.49,7Q58,63.93,60.1,67.42t2.14,10.45v22.57ZM17.42,34.51V55.77h20.1q6.46,0,9.13-3A11,11,0,0,0,49.3,45.2a11.28,11.28,0,0,0-2.6-7.69q-2.6-3-8.6-3Z"/><path class="cls-6" d="M113.76,103.21Q96,103.21,86.44,92.4T76.91,61.29a63.07,63.07,0,0,1,2.42-18.14A37.61,37.61,0,0,1,86.5,29.52,31,31,0,0,1,98.05,21a39.34,39.34,0,0,1,15.71-2.95A39.45,39.45,0,0,1,129.41,21a29.73,29.73,0,0,1,11.49,8.58,39.25,39.25,0,0,1,7,13.76,63.72,63.72,0,0,1,2.43,18.31q0,20.66-9.42,31.11T113.76,103.21Zm0-14.3a20.42,20.42,0,0,0,8.08-1.62,18,18,0,0,0,6.65-4.92,23.9,23.9,0,0,0,4.44-8.47,41.09,41.09,0,0,0,1.62-12.25q0-14.17-5.31-21.5t-15.48-7.32q-10.17,0-15.6,7.32t-5.43,21.5q0,14.17,5.49,20.72T113.76,88.91Z"/><path class="cls-6" d="M209.4,100.44,204.55,84h-28.3l-5.43,16.45h-17L181.22,20.7h18.6l27,79.74ZM190.34,38.59h-.11L180.41,70.3h19.52Z"/><path class="cls-6" d="M239.67,100.44V20.7h29.69a37.41,37.41,0,0,1,14.32,2.7,31.41,31.41,0,0,1,11.26,7.74,36.35,36.35,0,0,1,7.34,12.26,47,47,0,0,1,2.65,16.33,55.31,55.31,0,0,1-2.36,16.63,38.21,38.21,0,0,1-6.76,12.86,30.29,30.29,0,0,1-24,11.22Zm28.88-13.57q10.5,0,15.24-6.78t4.74-20.36a50.53,50.53,0,0,0-1.15-11.53,18.76,18.76,0,0,0-3.76-7.87A14.79,14.79,0,0,0,277,35.89a30.63,30.63,0,0,0-9.82-1.38h-11.9V86.87Z"/><path class="cls-7" d="M400.81,100.44V79.91q0-5.77-2.54-8.23c-1.7-1.64-4.85-2.46-9.47-2.46H371.7v31.22H356.11V20.7H395a25.67,25.67,0,0,1,9.65,1.74,22.43,22.43,0,0,1,7.45,4.8,20.68,20.68,0,0,1,4.79,7.33,24.81,24.81,0,0,1,1.68,9.19,22.09,22.09,0,0,1-3,11.47,15.93,15.93,0,0,1-8.49,7q5.08,1.68,7.22,5.17t2.14,10.45v22.57ZM371.7,34.51V55.77h20.1q6.46,0,9.12-3a10.94,10.94,0,0,0,2.66-7.56,11.28,11.28,0,0,0-2.6-7.69q-2.6-3-8.6-3Z"/><path class="cls-7" d="M477.51,20.7h16.4V73.9q0,14.53-8.2,21.92t-23.33,7.39q-14,0-22.12-7t-8.15-21.38V20.7H448.4V73.3q0,7.45,3.58,11.77t10.17,4.33q15.36,0,15.36-15.5Z"/><path class="cls-7" d="M556.75,100.44,524,46.88v53.56H509V20.7h17L556.52,72V20.7h15v79.74Z"/><path class="cls-7" d="M634.26,100.44,601.45,46.88v53.56h-14.9V20.7h17L634,72V20.7h15v79.74Z"/><path class="cls-7" d="M664.06,100.44V20.7h56.37V34.63H679.66v17H717.2V65.73H679.66V86.27h42.62v14.17Z"/><path class="cls-7" d="M779.46,100.44V79.91q0-5.77-2.54-8.23c-1.7-1.64-4.85-2.46-9.47-2.46h-17.1v31.22H734.76V20.7h38.92a25.67,25.67,0,0,1,9.65,1.74,22.43,22.43,0,0,1,7.45,4.8,20.84,20.84,0,0,1,4.8,7.33,25,25,0,0,1,1.67,9.19,22.09,22.09,0,0,1-3,11.47,15.93,15.93,0,0,1-8.49,7q5.09,1.68,7.22,5.17t2.14,10.45v22.57ZM750.35,34.51V55.77h20.1q6.46,0,9.13-3a11,11,0,0,0,2.65-7.56,11.28,11.28,0,0,0-2.6-7.69q-2.6-3-8.6-3Z"/><path d="M190.13,169.16c0,11.28-7.2,22.56-20.25,23.77a48.87,48.87,0,0,1-5,.18H154.51l6.92-41.63h10.32a36.9,36.9,0,0,1,4.6.18C183.78,152.33,190.13,157.75,190.13,169.16Zm-3.86.12c0-9.23-4.59-13.76-10.49-14.48a28.62,28.62,0,0,0-4.25-.18h-7.09L158.54,190h7.09a36.09,36.09,0,0,0,4.59-.24C181.05,188.34,186.27,178.93,186.27,169.28Z"/><path d="M235.27,170.72h19.79l-.51,3.14H234.7L232,190h21.89l-.51,3.08H228l6.92-41.63h24.84l-.56,3.08H237.94Z"/><path d="M319.89,193.11H294.48l6.92-41.63h3.51L298.5,190h21.9Z"/><path d="M360,193.11,367,151.48h3.51l-6.92,41.63Z"/><path d="M417.32,193.11l-7.21-41.63h3.8l6.3,38.73,19.45-38.73h4l-21.38,41.63Z"/><path d="M483.44,170.72h19.8l-.51,3.14H482.88L480.21,190H502.1l-.51,3.08H476.18l6.92-41.63H508l-.57,3.08H486.11Z"/><path d="M564.49,172.66c3.17.66,4.25,3.37,4.31,11.82.05,4.64.39,7.06,1,8.63H566c-.34-1.81-.63-3.93-.74-11.65-.06-3.92-1.08-6.87-4.82-7.12-1.08-.06-2.21-.06-3.12-.06h-8.05l-3.12,18.83h-3.52l6.92-41.63h11.57a37.23,37.23,0,0,1,5.28.24c5,.67,8.05,3.62,8.05,8.81A12,12,0,0,1,564.49,172.66Zm6.12-11.47c0-3.8-2-5.79-5.56-6.33a31.31,31.31,0,0,0-4.42-.24h-8.11l-2.72,16.53H558c1.65,0,2.56,0,4-.12C566.93,170.6,570.61,167,570.61,161.19Z"/><path d="M623.75,193.11h-3.52L623,176.64l-9.65-25.16H617l8.22,21.78,15.15-21.78h4.19l-18.14,25.4Z"/></g></g></svg>